<?xml version="1.0" encoding="UTF-8" standalone="no"?>
<svg
   xmlns:dc="http://purl.org/dc/elements/1.1/"
   xmlns:cc="http://creativecommons.org/ns#"
   xmlns:rdf="http://www.w3.org/1999/02/22-rdf-syntax-ns#"
   xmlns:svg="http://www.w3.org/2000/svg"
   xmlns="http://www.w3.org/2000/svg"
   xmlns:sodipodi="http://sodipodi.sourceforge.net/DTD/sodipodi-0.dtd"
   xmlns:inkscape="http://www.inkscape.org/namespaces/inkscape"
   height="24"
   viewBox="0 0 24 24"
   width="24"
   version="1.1"
   id="svg4550"
   sodipodi:docname="add_wallet.svg"
   inkscape:version="0.92.4 (5da689c313, 2019-01-14)">
  <metadata
     id="metadata4556">
    <rdf:RDF>
      <cc:Work
         rdf:about="">
        <dc:format>image/svg+xml</dc:format>
        <dc:type
           rdf:resource="http://purl.org/dc/dcmitype/StillImage" />
      </cc:Work>
    </rdf:RDF>
  </metadata>
  <defs
     id="defs4554" />
  <sodipodi:namedview
     pagecolor="#ffffff"
     bordercolor="#666666"
     borderopacity="1"
     objecttolerance="10"
     gridtolerance="10"
     guidetolerance="10"
     inkscape:pageopacity="0"
     inkscape:pageshadow="2"
     inkscape:window-width="2560"
     inkscape:window-height="1387"
     id="namedview4552"
     showgrid="false"
     inkscape:zoom="13.906433"
     inkscape:cx="-12.475933"
     inkscape:cy="18.111256"
     inkscape:window-x="-8"
     inkscape:window-y="-8"
     inkscape:window-maximized="1"
     inkscape:current-layer="svg4550" />
  <path
     d="M0 0h24v24H0z"
     fill="none"
     id="path4546" />
  <path
     d="m 6.609375,2.8984375 c -1.64497,0 -3,1.35503 -3,3 V 18.898438 c 0,1.105 0.895,2 2,2 h 14 c 1.105,0 2,-0.895001 2,-2 V 8.8984375 c 0,-1.105 -0.895,-2 -2,-2 h -11 -2 c -0.565031,0 -1,-0.43497 -1,-1 0,-0.56503 0.434969,-1 1,-1 h 14 v -2 z m 5.1875,7.2011715 h 2.013672 v 2.798829 h 2.798828 v 2.013671 h -2.798828 v 2.798829 H 11.796875 V 14.912109 H 8.9980469 v -2.013671 h 2.7988281 z"
     id="path5101"
     inkscape:connector-curvature="0"
     sodipodi:nodetypes="sssssssscsssccsccccccccccccc" />
</svg>
