<?xml version="1.0" encoding="UTF-8" standalone="no"?>
<!-- Created with Inkscape (http://www.inkscape.org/) -->

<svg
   xmlns:dc="http://purl.org/dc/elements/1.1/"
   xmlns:cc="http://creativecommons.org/ns#"
   xmlns:rdf="http://www.w3.org/1999/02/22-rdf-syntax-ns#"
   xmlns:svg="http://www.w3.org/2000/svg"
   xmlns="http://www.w3.org/2000/svg"
   xmlns:sodipodi="http://sodipodi.sourceforge.net/DTD/sodipodi-0.dtd"
   xmlns:inkscape="http://www.inkscape.org/namespaces/inkscape"
   width="1024"
   height="1024"
   viewBox="0 0 270.93333 270.93334"
   version="1.1"
   id="svg8"
   inkscape:version="0.92.4 (5da689c313, 2019-01-14)"
   sodipodi:docname="app-icon.svg"
   inkscape:export-filename="D:\Workspace\QWallet\assets\app-icon.png"
   inkscape:export-xdpi="83"
   inkscape:export-ydpi="83">
  <defs
     id="defs2" />
  <sodipodi:namedview
     id="base"
     pagecolor="#5d4037"
     bordercolor="#666666"
     borderopacity="1.0"
     inkscape:pageopacity="0"
     inkscape:pageshadow="2"
     inkscape:zoom="0.24748737"
     inkscape:cx="596.44514"
     inkscape:cy="574.65703"
     inkscape:document-units="mm"
     inkscape:current-layer="layer1"
     showgrid="false"
     units="px"
     inkscape:pagecheckerboard="true"
     borderlayer="false"
     inkscape:window-width="2560"
     inkscape:window-height="1387"
     inkscape:window-x="-8"
     inkscape:window-y="-8"
     inkscape:window-maximized="1" />
  <metadata
     id="metadata5">
    <rdf:RDF>
      <cc:Work
         rdf:about="">
        <dc:format>image/svg+xml</dc:format>
        <dc:type
           rdf:resource="http://purl.org/dc/dcmitype/StillImage" />
        <dc:title></dc:title>
      </cc:Work>
    </rdf:RDF>
  </metadata>
  <g
     inkscape:label="Layer 1"
     inkscape:groupmode="layer"
     id="layer1"
     transform="translate(0,-26.06665)">
    <rect
       style="opacity:1;fill:#5d4037;fill-opacity:1;fill-rule:nonzero;stroke:none;stroke-width:1.58749998;stroke-linecap:round;stroke-linejoin:miter;stroke-miterlimit:4;stroke-dasharray:none;stroke-opacity:1;paint-order:normal"
       id="rect837"
       width="271.54584"
       height="271.54584"
       x="0"
       y="25.454144" />
    <path
       id="path826"
       d="m 196.27623,26.168144 c -4.65534,0 -10.144,0.955394 -17.64158,2.940147 C 159.76835,34.082266 49.142289,64.68497 47.500576,65.175229 31.0844,71.349486 20.695501,77.426076 14.177961,84.580628 c 7.644573,-5.169799 16.759217,-8.42857 27.050207,-8.42857 H 216.85774 v -20.97361 c 0,-10.144004 -0.0711,-29.010304 -20.58151,-29.010304 z M 41.228168,88.696885 c -23.325831,0 -37.6349244,21.929255 -37.6349244,37.634925 v 134.07444 c 0,19.43006 15.8526594,35.28271 35.2827124,35.28271 H 231.75477 c 19.43004,0 35.28295,-15.85265 35.28295,-35.28271 V 125.35176 c 0,-19.18492 -17.93557,-36.654875 -37.63493,-36.654875 z M 219.99394,176.51179 c 8.64927,0 15.68125,7.00756 15.68125,15.68125 0,8.67369 -7.03198,15.68126 -15.68125,15.68126 -8.67369,0 -15.68125,-7.00757 -15.68125,-15.68126 0,-8.67369 7.00756,-15.68125 15.68125,-15.68125 z"
       inkscape:connector-curvature="0"
       style="fill:#f2f2f2;fill-opacity:1;stroke-width:6.27248716" />
    <text
       xml:space="preserve"
       style="font-style:normal;font-weight:normal;font-size:36.27907562px;line-height:1.25;font-family:sans-serif;letter-spacing:0px;word-spacing:0px;fill:#5d4037;fill-opacity:1;stroke:none;stroke-width:1.13372111"
       x="43.145058"
       y="246.30641"
       id="text841"
       transform="scale(0.95613776,1.0458744)"><tspan
         sodipodi:role="line"
         id="tspan839"
         x="43.145058"
         y="246.30641"
         style="font-style:normal;font-variant:normal;font-weight:bold;font-stretch:normal;font-size:217.67445374px;font-family:'Tw Cen MT';-inkscape-font-specification:'Tw Cen MT Bold';fill:#5d4037;fill-opacity:1;stroke-width:1.13372111">Q</tspan></text>
  </g>
</svg>
