<?xml version="1.0" encoding="UTF-8" standalone="no"?>
<!-- Created with Inkscape (http://www.inkscape.org/) -->

<svg
   xmlns:dc="http://purl.org/dc/elements/1.1/"
   xmlns:cc="http://creativecommons.org/ns#"
   xmlns:rdf="http://www.w3.org/1999/02/22-rdf-syntax-ns#"
   xmlns:svg="http://www.w3.org/2000/svg"
   xmlns="http://www.w3.org/2000/svg"
   xmlns:sodipodi="http://sodipodi.sourceforge.net/DTD/sodipodi-0.dtd"
   xmlns:inkscape="http://www.inkscape.org/namespaces/inkscape"
   width="1024"
   height="1024"
   viewBox="0 0 270.93333 270.93334"
   version="1.1"
   id="svg8"
   inkscape:version="0.92.4 (5da689c313, 2019-01-14)"
   sodipodi:docname="app-icon-shape.svg"
   inkscape:export-filename="D:\Workspace\QWallet\assets\app-icon.png"
   inkscape:export-xdpi="83"
   inkscape:export-ydpi="83">
  <defs
     id="defs2" />
  <sodipodi:namedview
     id="base"
     pagecolor="#5d4037"
     bordercolor="#666666"
     borderopacity="1.0"
     inkscape:pageopacity="0"
     inkscape:pageshadow="2"
     inkscape:zoom="0.35"
     inkscape:cx="-133.42565"
     inkscape:cy="9.5578535"
     inkscape:document-units="mm"
     inkscape:current-layer="layer1"
     showgrid="false"
     units="px"
     inkscape:pagecheckerboard="true"
     borderlayer="false"
     inkscape:window-width="2560"
     inkscape:window-height="1387"
     inkscape:window-x="-8"
     inkscape:window-y="-8"
     inkscape:window-maximized="1" />
  <metadata
     id="metadata5">
    <rdf:RDF>
      <cc:Work
         rdf:about="">
        <dc:format>image/svg+xml</dc:format>
        <dc:type
           rdf:resource="http://purl.org/dc/dcmitype/StillImage" />
        <dc:title></dc:title>
      </cc:Work>
    </rdf:RDF>
  </metadata>
  <g
     inkscape:label="Layer 1"
     inkscape:groupmode="layer"
     id="layer1"
     transform="translate(0,-26.06665)">
    <path
       style="fill:#060606;fill-opacity:1;stroke-width:23.70703888"
       d="M 741.83203 0.3828125 C 724.23705 0.3828125 703.49161 3.9946651 675.1543 11.496094 C 603.8486 30.295369 185.7342 145.95955 179.5293 147.8125 C 117.48391 171.14827 78.21916 194.11347 53.585938 221.1543 C 82.478812 201.6149 116.92719 189.29883 155.82227 189.29883 L 819.61914 189.29883 L 819.61914 110.0293 C 819.61914 71.689754 819.35169 0.3828125 741.83203 0.3828125 z M 155.82227 236.71289 C 67.661645 236.71289 13.580078 319.59507 13.580078 378.95508 L 13.580078 885.69336 C 13.580078 959.12981 73.497173 1019.0449 146.93359 1019.0449 L 875.92383 1019.0449 C 949.3602 1019.0449 1009.2773 959.12981 1009.2773 885.69336 L 1009.2773 375.25 C 1009.2773 302.74007 941.48748 236.71289 867.0332 236.71289 L 155.82227 236.71289 z M 444.75195 316.74023 C 516.44917 316.74023 576.75242 343.63022 625.66016 397.4082 C 674.82396 451.18619 699.40625 517.42844 699.40625 596.13477 C 699.40625 676.80174 675.33682 745.14337 627.19727 801.16211 L 689.41992 879.30859 L 616.05859 930.14648 L 559.5957 855.36133 C 517.0895 872.44704 479.06554 880.99023 445.52148 880.99023 C 371.0076 880.99023 309.80928 853.96042 261.92578 799.90234 C 214.29835 745.56417 190.48437 675.96018 190.48438 591.0918 C 190.48438 521.06838 213.65678 457.9082 260.00391 401.60938 C 306.60709 345.03045 368.18957 316.74023 444.75195 316.74023 z M 444.75195 426.81836 C 403.52606 426.81836 369.8546 442.64238 343.73633 474.29297 C 317.61806 505.66346 304.55859 546.27809 304.55859 596.13477 C 304.55859 646.83172 317.10519 688.56498 342.19922 721.33594 C 367.29324 753.8268 399.04586 770.07227 437.45508 770.07227 C 451.79452 770.07227 468.82233 768.39237 488.53906 765.03125 L 435.15039 696.12695 L 506.5918 645.29102 L 555.37109 708.3125 C 575.34389 684.22444 585.33008 648.93305 585.33008 602.4375 C 585.33008 548.93961 572.52802 506.36348 546.92188 474.71289 C 521.31573 442.78221 487.25816 426.81836 444.75195 426.81836 z M 831.47266 568.61133 C 864.16281 568.61133 890.74023 595.09646 890.74023 627.87891 C 890.74023 660.66136 864.16281 687.14648 831.47266 687.14648 C 798.69021 687.14648 772.20508 660.66136 772.20508 627.87891 C 772.20508 595.09646 798.69021 568.61133 831.47266 568.61133 z "
       transform="matrix(0.26458333,0,0,0.26458333,0,26.06665)"
       id="path826" />
  </g>
</svg>
