<svg width="1e3" height="1e3" version="1.1" viewBox="0 0 271 271" xmlns="http://www.w3.org/2000/svg">
    <g transform="translate(0 -26)">
        <path transform="matrix(.26 0 0 .26 0 26)"
              d="m742 0.38c-18 0-38 3.6-67 11-71 19-489 134-496 136-62 23-101 46-126 73 29-20 63-32 102-32h664v-79c0-38-0.27-110-78-110zm-586 236c-88 0-142 83-142 142v507c0 73 60 133 133 133h729c73 0 133-60 133-133v-510c0-73-68-139-142-139h-711zm289 80c72 0 132 27 181 81 49 54 74 120 74 199 0 81-24 149-72 205l62 78-73 51-56-75c-43 17-81 26-114 26-75 0-136-27-184-81-48-54-71-124-71-209 0-70 23-133 70-189 47-57 108-85 185-85zm0 110c-41 0-75 16-101 47-26 31-39 72-39 122 0 51 13 92 38 125 25 32 57 49 95 49 14 0 31-1.7 51-5l-53-69 71-51 49 63c20-24 30-59 30-106 0-53-13-96-38-128-26-32-60-48-102-48zm387 142c33 0 59 26 59 59s-27 59-59 59c-33 0-59-26-59-59s26-59 59-59z"
              fill="#060606" stroke-width="24"/>
    </g>
</svg>
