<svg version="1.1" viewBox="0 0 24 24" xmlns="http://www.w3.org/2000/svg">
 <path d="m3 3c-0.552 0-1 0.448-1 1v10c0 0.45973 0.31746 0.83054 0.74023 0.94727 0.50829-0.86376 1.2494-1.567 2.1387-2.0293-0.16356-0.38773-0.48247-0.68892-0.87891-0.83008v-6.1758c0.42591-0.15111 0.761-0.48619 0.91211-0.91211h2.0625l-0.97852-0.94531 1.0176-1.0547h-4.0137zm14.043 0 0.93945 0.95703-1.0605 1.043h2.166c0.15111 0.42591 0.48619 0.761 0.91211 0.91211v6.1758c-0.42591 0.15111-0.761 0.4862-0.91211 0.91211h-9.1465c0.84081 0.47222 1.538 1.1634 2.0176 2h9.041c0.552 0 1-0.448 1-1v-10c0-0.552-0.448-1-1-1h-3.957zm-2.5312 4.3672-0.011719 0.011719v3.0547 0.22266c0.31517-0.47478 0.5-1.0437 0.5-1.6562 0-0.60321-0.1819-1.1624-0.48828-1.6328zm-5.0449 0.039062c-0.29165 0.46261-0.4668 1.0065-0.4668 1.5938 0 0.61257 0.18483 1.1815 0.5 1.6562v-0.22266-2.9941l-0.033203-0.033203zm-2.4668 0.59375c-0.552 0-1 0.447-1 1s0.448 1 1 1 1-0.447 1-1-0.448-1-1-1zm10 0c-0.552 0-1 0.447-1 1s0.448 1 1 1 1-0.447 1-1-0.448-1-1-1zm2.2285 9-0.23633 0.90039c-0.449 0.039-0.85442 0.27839-1.1074 0.65039l-5.2363-1.3633c0.01533 0.1558 0.0238 0.3122 0.02539 0.46875-6.68e-4 0.52349-0.07832 1.044-0.23047 1.5449l6.7852 1.7676c0.535 0.139 1.0798-0.1828 1.2188-0.7168l0.84766-3.252h-2.0664z"/>
 <path d="m7.3574 13.105a4.6381 4.6381 0 0 0-4.6387 4.6387 4.6381 4.6381 0 0 0 4.6387 4.6387 4.6381 4.6381 0 0 0 4.6387-4.6387 4.6381 4.6381 0 0 0-4.6387-4.6387zm-0.5 2.1387h1v2h2v1h-2v2h-1v-2h-2v-1h2v-2z" style="paint-order:normal"/>
 <path d="m12 11.72v-9.7203m-3 3 3-3 3 3" fill="none" stroke="#000" stroke-width="2" style="paint-order:stroke markers fill"/>
</svg>
