<?xml version="1.0" encoding="UTF-8" standalone="no"?>
<svg
        xmlns:dc="http://purl.org/dc/elements/1.1/"
        xmlns:cc="http://creativecommons.org/ns#"
        xmlns:rdf="http://www.w3.org/1999/02/22-rdf-syntax-ns#"
        xmlns="http://www.w3.org/2000/svg"
        xmlns:sodipodi="http://sodipodi.sourceforge.net/DTD/sodipodi-0.dtd"
        xmlns:inkscape="http://www.inkscape.org/namespaces/inkscape"
        viewBox="0 0 24 24"
        version="1.1"
        id="svg4"
        sodipodi:docname="ic-add-expense.svg"
        inkscape:version="0.92.4 (5da689c313, 2019-01-14)">
  <metadata
     id="metadata10">
    <rdf:RDF>
      <cc:Work
         rdf:about="">
        <dc:format>image/svg+xml</dc:format>
        <dc:type
           rdf:resource="http://purl.org/dc/dcmitype/StillImage" />
        <dc:title></dc:title>
      </cc:Work>
    </rdf:RDF>
  </metadata>
  <defs
     id="defs8" />
  <sodipodi:namedview
     pagecolor="#ffffff"
     bordercolor="#666666"
     borderopacity="1"
     objecttolerance="10"
     gridtolerance="10"
     guidetolerance="10"
     inkscape:pageopacity="0"
     inkscape:pageshadow="2"
     inkscape:window-width="2560"
     inkscape:window-height="1387"
     id="namedview6"
     showgrid="true"
     inkscape:zoom="9.8333335"
     inkscape:cx="21.750493"
     inkscape:cy="13.890701"
     inkscape:window-x="-8"
     inkscape:window-y="-8"
     inkscape:window-maximized="1"
     inkscape:current-layer="svg4"
     inkscape:pagecheckerboard="true"
     showguides="true"
     inkscape:snap-grids="true"
     inkscape:snap-to-guides="true">
    <inkscape:grid
       type="xygrid"
       id="grid8"
       empspacing="4"
       enabled="true"
       visible="true"
       snapvisiblegridlinesonly="false"
       dotted="false" />
  </sodipodi:namedview>
  <path
     d="M 3 3 C 2.448 3 2 3.448 2 4 L 2 14 C 2 14.459733 2.3174617 14.830537 2.7402344 14.947266 A 5.3389831 5.3389831 0 0 1 4.8789062 12.917969 A 1.5 1.5 0 0 0 4 12.087891 L 4 5.9121094 A 1.5 1.5 0 0 0 4.9121094 5 L 19.087891 5 A 1.5 1.5 0 0 0 20 5.9121094 L 20 12.087891 A 1.5 1.5 0 0 0 19.087891 13 L 9.9414062 13 A 5.3389831 5.3389831 0 0 1 11.958984 15 L 21 15 C 21.552 15 22 14.552 22 14 L 22 4 C 22 3.448 21.552 3 21 3 L 3 3 z M 12 6 A 3 3 0 0 0 9 9 A 3 3 0 0 0 12 12 A 3 3 0 0 0 15 9 A 3 3 0 0 0 12 6 z M 11.75 7.2753906 L 12.25 7.2753906 L 12.25 9.671875 L 12.822266 9.0996094 L 13.177734 9.453125 L 12 10.628906 L 10.822266 9.453125 L 11.177734 9.0996094 L 11.75 9.671875 L 11.75 7.2753906 z M 7 8 C 6.448 8 6 8.447 6 9 C 6 9.553 6.448 10 7 10 C 7.552 10 8 9.553 8 9 C 8 8.447 7.552 8 7 8 z M 17 8 C 16.448 8 16 8.447 16 9 C 16 9.553 16.448 10 17 10 C 17.552 10 18 9.553 18 9 C 18 8.447 17.552 8 17 8 z M 19.228516 17 L 18.992188 17.900391 C 18.543187 17.939391 18.137766 18.178781 17.884766 18.550781 L 12.648438 17.1875 A 5.3389831 5.3389831 0 0 1 12.673828 17.65625 A 5.3389831 5.3389831 0 0 1 12.443359 19.201172 L 19.228516 20.96875 C 19.763516 21.10775 20.308266 20.785953 20.447266 20.251953 L 21.294922 17 L 19.228516 17 z "
     id="path2" />
  <path
     style="opacity:1;fill:#000000;fill-opacity:1;fill-rule:nonzero;stroke:none;stroke-width:5.21232748;stroke-linecap:round;stroke-linejoin:miter;stroke-miterlimit:4;stroke-dasharray:none;stroke-opacity:1;paint-order:normal"
     d="M 7.3574219 13.105469 A 4.6380877 4.6380877 0 0 0 2.71875 17.744141 A 4.6380877 4.6380877 0 0 0 7.3574219 22.382812 A 4.6380877 4.6380877 0 0 0 11.996094 17.744141 A 4.6380877 4.6380877 0 0 0 7.3574219 13.105469 z M 6.8574219 15.244141 L 7.8574219 15.244141 L 7.8574219 17.244141 L 9.8574219 17.244141 L 9.8574219 18.244141 L 7.8574219 18.244141 L 7.8574219 20.244141 L 6.8574219 20.244141 L 6.8574219 18.244141 L 4.8574219 18.244141 L 4.8574219 17.244141 L 6.8574219 17.244141 L 6.8574219 15.244141 z "
     id="path823-8" />
</svg>
