<svg version="1.1" viewBox="0 0 24 24" xmlns="http://www.w3.org/2000/svg">
 <path d="m3 3c-0.552 0-1 0.448-1 1v10c0 0.45973 0.31746 0.83054 0.74023 0.94727 0.50829-0.86376 1.2494-1.567 2.1387-2.0293-0.16356-0.38773-0.48247-0.68892-0.87891-0.83008v-6.1758c0.42591-0.15111 0.761-0.48619 0.91211-0.91211h14.176c0.15111 0.42591 0.48619 0.761 0.91211 0.91211v6.1758c-0.42591 0.15111-0.761 0.4862-0.91211 0.91211h-9.1465c0.84081 0.47222 1.538 1.1634 2.0176 2h9.041c0.552 0 1-0.448 1-1v-10c0-0.552-0.448-1-1-1zm9 3c-1.6569 0-3 1.3431-3 3s1.3431 3 3 3 3-1.3431 3-3-1.3431-3-3-3zm-5 2c-0.552 0-1 0.447-1 1s0.448 1 1 1 1-0.447 1-1-0.448-1-1-1zm10 0c-0.552 0-1 0.447-1 1s0.448 1 1 1 1-0.447 1-1-0.448-1-1-1z"/>
 <path d="m7.3574 13.105a4.6381 4.6381 0 0 0-4.6387 4.6387 4.6381 4.6381 0 0 0 4.6387 4.6387 4.6381 4.6381 0 0 0 4.6387-4.6387 4.6381 4.6381 0 0 0-4.6387-4.6387zm-0.5 2.1387h1v2h2v1h-2v2h-1v-2h-2v-1h2v-2z" style="paint-order:normal"/>
</svg>
